<mxfile host="app.diagrams.net" modified="2022-06-06T05:59:11.135Z" agent="5.0 (Windows NT 10.0; Win64; x64) AppleWebKit/537.36 (KHTML, like Gecko) Chrome/102.0.5005.63 Safari/537.36" etag="Kb0MAuwOAIRT26YWhfv-" version="19.0.0" type="github">
  <diagram id="euGVbijHBK79JXhbVK_S" name="Page-1">
    <mxGraphModel dx="1741" dy="474" grid="1" gridSize="10" guides="1" tooltips="1" connect="1" arrows="1" fold="1" page="1" pageScale="1" pageWidth="827" pageHeight="1169" math="0" shadow="0">
      <root>
        <mxCell id="0" />
        <mxCell id="1" parent="0" />
        <mxCell id="8rBcMEOyOnEWWZbrD7cP-1" value="Client" style="rounded=0;whiteSpace=wrap;html=1;" vertex="1" parent="1">
          <mxGeometry x="572" y="390" width="76" height="30" as="geometry" />
        </mxCell>
        <mxCell id="8rBcMEOyOnEWWZbrD7cP-2" value="Name" style="ellipse;whiteSpace=wrap;html=1;" vertex="1" parent="1">
          <mxGeometry x="598" y="320" width="70" height="40" as="geometry" />
        </mxCell>
        <mxCell id="8rBcMEOyOnEWWZbrD7cP-3" value="" style="endArrow=none;html=1;rounded=0;entryX=0.5;entryY=1;entryDx=0;entryDy=0;" edge="1" parent="1" target="8rBcMEOyOnEWWZbrD7cP-2">
          <mxGeometry width="50" height="50" relative="1" as="geometry">
            <mxPoint x="628" y="390" as="sourcePoint" />
            <mxPoint x="678" y="340" as="targetPoint" />
          </mxGeometry>
        </mxCell>
        <mxCell id="8rBcMEOyOnEWWZbrD7cP-5" value="firstName" style="ellipse;whiteSpace=wrap;html=1;" vertex="1" parent="1">
          <mxGeometry x="548" y="240" width="70" height="40" as="geometry" />
        </mxCell>
        <mxCell id="8rBcMEOyOnEWWZbrD7cP-7" value="" style="endArrow=none;html=1;rounded=0;entryX=0.5;entryY=1;entryDx=0;entryDy=0;" edge="1" parent="1" source="8rBcMEOyOnEWWZbrD7cP-2" target="8rBcMEOyOnEWWZbrD7cP-5">
          <mxGeometry width="50" height="50" relative="1" as="geometry">
            <mxPoint x="700" y="335" as="sourcePoint" />
            <mxPoint x="750" y="315" as="targetPoint" />
          </mxGeometry>
        </mxCell>
        <mxCell id="8rBcMEOyOnEWWZbrD7cP-8" value="middleName" style="ellipse;whiteSpace=wrap;html=1;" vertex="1" parent="1">
          <mxGeometry x="648" y="240" width="70" height="40" as="geometry" />
        </mxCell>
        <mxCell id="8rBcMEOyOnEWWZbrD7cP-9" value="" style="endArrow=none;html=1;rounded=0;entryX=0.5;entryY=1;entryDx=0;entryDy=0;exitX=0.614;exitY=0.05;exitDx=0;exitDy=0;exitPerimeter=0;" edge="1" parent="1" source="8rBcMEOyOnEWWZbrD7cP-2" target="8rBcMEOyOnEWWZbrD7cP-8">
          <mxGeometry width="50" height="50" relative="1" as="geometry">
            <mxPoint x="710" y="345" as="sourcePoint" />
            <mxPoint x="760" y="325" as="targetPoint" />
          </mxGeometry>
        </mxCell>
        <mxCell id="8rBcMEOyOnEWWZbrD7cP-10" value="lastName" style="ellipse;whiteSpace=wrap;html=1;" vertex="1" parent="1">
          <mxGeometry x="748" y="240" width="70" height="40" as="geometry" />
        </mxCell>
        <mxCell id="8rBcMEOyOnEWWZbrD7cP-11" value="" style="endArrow=none;html=1;rounded=0;entryX=0.5;entryY=1;entryDx=0;entryDy=0;exitX=1;exitY=0.5;exitDx=0;exitDy=0;" edge="1" parent="1" source="8rBcMEOyOnEWWZbrD7cP-2" target="8rBcMEOyOnEWWZbrD7cP-10">
          <mxGeometry width="50" height="50" relative="1" as="geometry">
            <mxPoint x="698" y="360" as="sourcePoint" />
            <mxPoint x="758" y="370" as="targetPoint" />
          </mxGeometry>
        </mxCell>
        <mxCell id="8rBcMEOyOnEWWZbrD7cP-12" value="&lt;u&gt;ClientID&lt;/u&gt;" style="ellipse;whiteSpace=wrap;html=1;" vertex="1" parent="1">
          <mxGeometry x="502" y="330" width="70" height="40" as="geometry" />
        </mxCell>
        <mxCell id="8rBcMEOyOnEWWZbrD7cP-14" value="" style="endArrow=none;html=1;rounded=0;entryX=1;entryY=0.5;entryDx=0;entryDy=0;exitX=0.5;exitY=0;exitDx=0;exitDy=0;" edge="1" parent="1" source="8rBcMEOyOnEWWZbrD7cP-1" target="8rBcMEOyOnEWWZbrD7cP-12">
          <mxGeometry width="50" height="50" relative="1" as="geometry">
            <mxPoint x="668" y="530" as="sourcePoint" />
            <mxPoint x="557" y="360" as="targetPoint" />
          </mxGeometry>
        </mxCell>
        <mxCell id="8rBcMEOyOnEWWZbrD7cP-15" value="Adress" style="rounded=0;whiteSpace=wrap;html=1;" vertex="1" parent="1">
          <mxGeometry x="646" y="627.5" width="76" height="30" as="geometry" />
        </mxCell>
        <mxCell id="8rBcMEOyOnEWWZbrD7cP-16" value="Factory" style="rounded=0;whiteSpace=wrap;html=1;" vertex="1" parent="1">
          <mxGeometry x="336" y="630" width="76" height="30" as="geometry" />
        </mxCell>
        <mxCell id="8rBcMEOyOnEWWZbrD7cP-17" value="Product" style="rounded=0;whiteSpace=wrap;html=1;" vertex="1" parent="1">
          <mxGeometry x="-132" y="520" width="76" height="30" as="geometry" />
        </mxCell>
        <mxCell id="8rBcMEOyOnEWWZbrD7cP-18" value="Orders" style="rounded=0;whiteSpace=wrap;html=1;" vertex="1" parent="1">
          <mxGeometry x="249" y="390" width="76" height="30" as="geometry" />
        </mxCell>
        <mxCell id="8rBcMEOyOnEWWZbrD7cP-19" value="Warehourse" style="rounded=0;whiteSpace=wrap;html=1;" vertex="1" parent="1">
          <mxGeometry x="-20" y="310" width="76" height="30" as="geometry" />
        </mxCell>
        <mxCell id="8rBcMEOyOnEWWZbrD7cP-20" value="has" style="rhombus;whiteSpace=wrap;html=1;" vertex="1" parent="1">
          <mxGeometry x="580" y="450" width="60" height="60" as="geometry" />
        </mxCell>
        <mxCell id="8rBcMEOyOnEWWZbrD7cP-21" value="" style="endArrow=none;html=1;rounded=0;entryX=0.5;entryY=1;entryDx=0;entryDy=0;exitX=0.5;exitY=0;exitDx=0;exitDy=0;" edge="1" parent="1" source="8rBcMEOyOnEWWZbrD7cP-20" target="8rBcMEOyOnEWWZbrD7cP-1">
          <mxGeometry width="50" height="50" relative="1" as="geometry">
            <mxPoint x="620" y="445" as="sourcePoint" />
            <mxPoint x="593" y="415" as="targetPoint" />
          </mxGeometry>
        </mxCell>
        <mxCell id="8rBcMEOyOnEWWZbrD7cP-23" value="" style="endArrow=none;html=1;rounded=0;exitX=0.25;exitY=0;exitDx=0;exitDy=0;entryX=0.5;entryY=1;entryDx=0;entryDy=0;" edge="1" parent="1" source="8rBcMEOyOnEWWZbrD7cP-15" target="8rBcMEOyOnEWWZbrD7cP-20">
          <mxGeometry width="50" height="50" relative="1" as="geometry">
            <mxPoint x="519" y="530" as="sourcePoint" />
            <mxPoint x="519" y="510" as="targetPoint" />
          </mxGeometry>
        </mxCell>
        <mxCell id="8rBcMEOyOnEWWZbrD7cP-24" value="Email" style="ellipse;whiteSpace=wrap;html=1;" vertex="1" parent="1">
          <mxGeometry x="738" y="320" width="70" height="40" as="geometry" />
        </mxCell>
        <mxCell id="8rBcMEOyOnEWWZbrD7cP-25" value="PhoneNo" style="ellipse;whiteSpace=wrap;html=1;" vertex="1" parent="1">
          <mxGeometry x="738" y="380" width="70" height="40" as="geometry" />
        </mxCell>
        <mxCell id="8rBcMEOyOnEWWZbrD7cP-26" value="" style="endArrow=none;html=1;rounded=0;entryX=0;entryY=0.5;entryDx=0;entryDy=0;" edge="1" parent="1" target="8rBcMEOyOnEWWZbrD7cP-24">
          <mxGeometry width="50" height="50" relative="1" as="geometry">
            <mxPoint x="648" y="400" as="sourcePoint" />
            <mxPoint x="646" y="370" as="targetPoint" />
          </mxGeometry>
        </mxCell>
        <mxCell id="8rBcMEOyOnEWWZbrD7cP-27" value="" style="endArrow=none;html=1;rounded=0;entryX=0;entryY=0.5;entryDx=0;entryDy=0;exitX=1;exitY=0.25;exitDx=0;exitDy=0;" edge="1" parent="1" source="8rBcMEOyOnEWWZbrD7cP-1" target="8rBcMEOyOnEWWZbrD7cP-25">
          <mxGeometry width="50" height="50" relative="1" as="geometry">
            <mxPoint x="658" y="410" as="sourcePoint" />
            <mxPoint x="748" y="350" as="targetPoint" />
          </mxGeometry>
        </mxCell>
        <mxCell id="8rBcMEOyOnEWWZbrD7cP-30" value="&lt;u&gt;Name&lt;/u&gt;" style="ellipse;whiteSpace=wrap;html=1;" vertex="1" parent="1">
          <mxGeometry x="312.5" y="575" width="50" height="30" as="geometry" />
        </mxCell>
        <mxCell id="8rBcMEOyOnEWWZbrD7cP-31" value="&lt;u&gt;Type&lt;/u&gt;" style="ellipse;whiteSpace=wrap;html=1;" vertex="1" parent="1">
          <mxGeometry x="385.5" y="575" width="50" height="30" as="geometry" />
        </mxCell>
        <mxCell id="8rBcMEOyOnEWWZbrD7cP-32" value="Location" style="rhombus;whiteSpace=wrap;html=1;" vertex="1" parent="1">
          <mxGeometry x="498" y="615" width="60" height="60" as="geometry" />
        </mxCell>
        <mxCell id="8rBcMEOyOnEWWZbrD7cP-33" value="" style="endArrow=none;html=1;rounded=0;exitX=1;exitY=0.25;exitDx=0;exitDy=0;" edge="1" parent="1">
          <mxGeometry width="50" height="50" relative="1" as="geometry">
            <mxPoint x="412" y="643.75" as="sourcePoint" />
            <mxPoint x="499" y="644" as="targetPoint" />
          </mxGeometry>
        </mxCell>
        <mxCell id="8rBcMEOyOnEWWZbrD7cP-34" value="" style="endArrow=none;html=1;rounded=0;exitX=1;exitY=0.25;exitDx=0;exitDy=0;" edge="1" parent="1">
          <mxGeometry width="50" height="50" relative="1" as="geometry">
            <mxPoint x="556" y="644.5" as="sourcePoint" />
            <mxPoint x="643" y="644.75" as="targetPoint" />
          </mxGeometry>
        </mxCell>
        <mxCell id="8rBcMEOyOnEWWZbrD7cP-35" value="" style="endArrow=none;html=1;rounded=0;exitX=0.75;exitY=0;exitDx=0;exitDy=0;entryX=0.5;entryY=1;entryDx=0;entryDy=0;" edge="1" parent="1" source="8rBcMEOyOnEWWZbrD7cP-16" target="8rBcMEOyOnEWWZbrD7cP-31">
          <mxGeometry width="50" height="50" relative="1" as="geometry">
            <mxPoint x="422" y="653.75" as="sourcePoint" />
            <mxPoint x="509" y="654" as="targetPoint" />
          </mxGeometry>
        </mxCell>
        <mxCell id="8rBcMEOyOnEWWZbrD7cP-36" value="" style="endArrow=none;html=1;rounded=0;exitX=0.25;exitY=0;exitDx=0;exitDy=0;entryX=0.5;entryY=1;entryDx=0;entryDy=0;" edge="1" parent="1" source="8rBcMEOyOnEWWZbrD7cP-16" target="8rBcMEOyOnEWWZbrD7cP-30">
          <mxGeometry width="50" height="50" relative="1" as="geometry">
            <mxPoint x="403" y="640" as="sourcePoint" />
            <mxPoint x="420.5" y="615" as="targetPoint" />
          </mxGeometry>
        </mxCell>
        <mxCell id="8rBcMEOyOnEWWZbrD7cP-37" value="PhoneNo" style="ellipse;whiteSpace=wrap;html=1;" vertex="1" parent="1">
          <mxGeometry x="299" y="690" width="60" height="30" as="geometry" />
        </mxCell>
        <mxCell id="8rBcMEOyOnEWWZbrD7cP-38" value="Discription" style="ellipse;whiteSpace=wrap;html=1;" vertex="1" parent="1">
          <mxGeometry x="375.5" y="690" width="60" height="30" as="geometry" />
        </mxCell>
        <mxCell id="8rBcMEOyOnEWWZbrD7cP-39" value="" style="endArrow=none;html=1;rounded=0;exitX=0.5;exitY=0;exitDx=0;exitDy=0;entryX=0.25;entryY=1;entryDx=0;entryDy=0;" edge="1" parent="1" source="8rBcMEOyOnEWWZbrD7cP-37" target="8rBcMEOyOnEWWZbrD7cP-16">
          <mxGeometry width="50" height="50" relative="1" as="geometry">
            <mxPoint x="365" y="684" as="sourcePoint" />
            <mxPoint x="347.5" y="659" as="targetPoint" />
          </mxGeometry>
        </mxCell>
        <mxCell id="8rBcMEOyOnEWWZbrD7cP-40" value="" style="endArrow=none;html=1;rounded=0;exitX=0.75;exitY=1;exitDx=0;exitDy=0;entryX=0.5;entryY=0;entryDx=0;entryDy=0;" edge="1" parent="1" source="8rBcMEOyOnEWWZbrD7cP-16" target="8rBcMEOyOnEWWZbrD7cP-38">
          <mxGeometry width="50" height="50" relative="1" as="geometry">
            <mxPoint x="403" y="640" as="sourcePoint" />
            <mxPoint x="420.5" y="615" as="targetPoint" />
          </mxGeometry>
        </mxCell>
        <mxCell id="8rBcMEOyOnEWWZbrD7cP-41" value="&lt;u&gt;addrID&lt;/u&gt;" style="ellipse;whiteSpace=wrap;html=1;" vertex="1" parent="1">
          <mxGeometry x="722" y="584.5" width="50" height="35" as="geometry" />
        </mxCell>
        <mxCell id="8rBcMEOyOnEWWZbrD7cP-42" value="" style="endArrow=none;html=1;rounded=0;exitX=0.75;exitY=0;exitDx=0;exitDy=0;entryX=0;entryY=0.5;entryDx=0;entryDy=0;" edge="1" parent="1" source="8rBcMEOyOnEWWZbrD7cP-15" target="8rBcMEOyOnEWWZbrD7cP-41">
          <mxGeometry width="50" height="50" relative="1" as="geometry">
            <mxPoint x="406" y="637.5" as="sourcePoint" />
            <mxPoint x="423.5" y="612.5" as="targetPoint" />
          </mxGeometry>
        </mxCell>
        <mxCell id="8rBcMEOyOnEWWZbrD7cP-44" value="&lt;font style=&quot;font-size: 11px;&quot;&gt;street&lt;/font&gt;" style="ellipse;whiteSpace=wrap;html=1;fontSize=9;" vertex="1" parent="1">
          <mxGeometry x="772" y="612.5" width="40" height="25" as="geometry" />
        </mxCell>
        <mxCell id="8rBcMEOyOnEWWZbrD7cP-46" value="&lt;font style=&quot;font-size: 11px;&quot;&gt;streetNo.&lt;/font&gt;" style="ellipse;whiteSpace=wrap;html=1;fontSize=9;" vertex="1" parent="1">
          <mxGeometry x="772" y="647.5" width="60" height="25" as="geometry" />
        </mxCell>
        <mxCell id="8rBcMEOyOnEWWZbrD7cP-47" value="&lt;font style=&quot;font-size: 11px;&quot;&gt;city&lt;/font&gt;" style="ellipse;whiteSpace=wrap;html=1;fontSize=9;dashed=1;" vertex="1" parent="1">
          <mxGeometry x="772" y="677.5" width="60" height="25" as="geometry" />
        </mxCell>
        <mxCell id="8rBcMEOyOnEWWZbrD7cP-48" value="&lt;font style=&quot;font-size: 11px;&quot;&gt;state&lt;/font&gt;" style="ellipse;whiteSpace=wrap;html=1;fontSize=9;dashed=1;" vertex="1" parent="1">
          <mxGeometry x="772" y="707.5" width="60" height="25" as="geometry" />
        </mxCell>
        <mxCell id="8rBcMEOyOnEWWZbrD7cP-49" value="" style="endArrow=none;html=1;rounded=0;entryX=0;entryY=0.5;entryDx=0;entryDy=0;" edge="1" parent="1" target="8rBcMEOyOnEWWZbrD7cP-44">
          <mxGeometry width="50" height="50" relative="1" as="geometry">
            <mxPoint x="722" y="637.5" as="sourcePoint" />
            <mxPoint x="732" y="612" as="targetPoint" />
          </mxGeometry>
        </mxCell>
        <mxCell id="8rBcMEOyOnEWWZbrD7cP-50" value="" style="endArrow=none;html=1;rounded=0;entryX=0;entryY=0.5;entryDx=0;entryDy=0;" edge="1" parent="1" target="8rBcMEOyOnEWWZbrD7cP-46">
          <mxGeometry width="50" height="50" relative="1" as="geometry">
            <mxPoint x="722" y="637.5" as="sourcePoint" />
            <mxPoint x="782" y="635" as="targetPoint" />
          </mxGeometry>
        </mxCell>
        <mxCell id="8rBcMEOyOnEWWZbrD7cP-53" value="" style="endArrow=none;html=1;rounded=0;entryX=0;entryY=0.5;entryDx=0;entryDy=0;exitX=1;exitY=0.5;exitDx=0;exitDy=0;" edge="1" parent="1" source="8rBcMEOyOnEWWZbrD7cP-15" target="8rBcMEOyOnEWWZbrD7cP-47">
          <mxGeometry width="50" height="50" relative="1" as="geometry">
            <mxPoint x="732" y="647.5" as="sourcePoint" />
            <mxPoint x="782" y="670" as="targetPoint" />
          </mxGeometry>
        </mxCell>
        <mxCell id="8rBcMEOyOnEWWZbrD7cP-54" value="" style="endArrow=none;html=1;rounded=0;entryX=0;entryY=0.2;entryDx=0;entryDy=0;exitX=1;exitY=1;exitDx=0;exitDy=0;entryPerimeter=0;" edge="1" parent="1" source="8rBcMEOyOnEWWZbrD7cP-15" target="8rBcMEOyOnEWWZbrD7cP-48">
          <mxGeometry width="50" height="50" relative="1" as="geometry">
            <mxPoint x="732" y="652.5" as="sourcePoint" />
            <mxPoint x="782" y="700" as="targetPoint" />
          </mxGeometry>
        </mxCell>
        <mxCell id="8rBcMEOyOnEWWZbrD7cP-55" value="&lt;font style=&quot;font-size: 11px;&quot;&gt;Zipcode&lt;/font&gt;" style="ellipse;whiteSpace=wrap;html=1;fontSize=9;" vertex="1" parent="1">
          <mxGeometry x="702" y="707.5" width="60" height="25" as="geometry" />
        </mxCell>
        <mxCell id="8rBcMEOyOnEWWZbrD7cP-56" value="" style="endArrow=none;html=1;rounded=0;entryX=0.5;entryY=0;entryDx=0;entryDy=0;exitX=0.75;exitY=1;exitDx=0;exitDy=0;" edge="1" parent="1" source="8rBcMEOyOnEWWZbrD7cP-15" target="8rBcMEOyOnEWWZbrD7cP-55">
          <mxGeometry width="50" height="50" relative="1" as="geometry">
            <mxPoint x="732" y="667.5" as="sourcePoint" />
            <mxPoint x="782" y="722.5" as="targetPoint" />
          </mxGeometry>
        </mxCell>
        <mxCell id="8rBcMEOyOnEWWZbrD7cP-57" value="0:1" style="text;html=1;resizable=0;autosize=1;align=center;verticalAlign=middle;points=[];fillColor=none;strokeColor=none;rounded=0;dashed=1;fontSize=11;fontStyle=1" vertex="1" parent="1">
          <mxGeometry x="439.5" y="628" width="30" height="20" as="geometry" />
        </mxCell>
        <mxCell id="8rBcMEOyOnEWWZbrD7cP-58" value="0:1" style="text;html=1;resizable=0;autosize=1;align=center;verticalAlign=middle;points=[];fillColor=none;strokeColor=none;rounded=0;dashed=1;fontSize=11;fontStyle=1" vertex="1" parent="1">
          <mxGeometry x="578" y="628" width="30" height="20" as="geometry" />
        </mxCell>
        <mxCell id="8rBcMEOyOnEWWZbrD7cP-59" value="0:1" style="text;html=1;resizable=0;autosize=1;align=center;verticalAlign=middle;points=[];fillColor=none;strokeColor=none;rounded=0;dashed=1;fontSize=11;fontStyle=1" vertex="1" parent="1">
          <mxGeometry x="642" y="557.5" width="30" height="20" as="geometry" />
        </mxCell>
        <mxCell id="8rBcMEOyOnEWWZbrD7cP-60" value="Assigned" style="rhombus;whiteSpace=wrap;html=1;" vertex="1" parent="1">
          <mxGeometry x="425" y="470" width="60" height="60" as="geometry" />
        </mxCell>
        <mxCell id="8rBcMEOyOnEWWZbrD7cP-61" value="" style="endArrow=none;html=1;rounded=0;exitX=0.5;exitY=0;exitDx=0;exitDy=0;entryX=0;entryY=0.5;entryDx=0;entryDy=0;" edge="1" parent="1" source="8rBcMEOyOnEWWZbrD7cP-60" target="8rBcMEOyOnEWWZbrD7cP-1">
          <mxGeometry width="50" height="50" relative="1" as="geometry">
            <mxPoint x="561" y="520" as="sourcePoint" />
            <mxPoint x="669" y="405" as="targetPoint" />
          </mxGeometry>
        </mxCell>
        <mxCell id="8rBcMEOyOnEWWZbrD7cP-62" value="" style="endArrow=none;html=1;rounded=0;exitX=1;exitY=0;exitDx=0;exitDy=0;" edge="1" parent="1" source="8rBcMEOyOnEWWZbrD7cP-16">
          <mxGeometry width="50" height="50" relative="1" as="geometry">
            <mxPoint x="331" y="600" as="sourcePoint" />
            <mxPoint x="455" y="530" as="targetPoint" />
          </mxGeometry>
        </mxCell>
        <mxCell id="8rBcMEOyOnEWWZbrD7cP-63" value="Place" style="rhombus;whiteSpace=wrap;html=1;" vertex="1" parent="1">
          <mxGeometry x="405.5" y="380" width="49.5" height="50" as="geometry" />
        </mxCell>
        <mxCell id="8rBcMEOyOnEWWZbrD7cP-65" value="" style="endArrow=none;html=1;rounded=0;fontSize=11;entryX=0;entryY=0.5;entryDx=0;entryDy=0;exitX=1;exitY=0.5;exitDx=0;exitDy=0;" edge="1" parent="1" source="8rBcMEOyOnEWWZbrD7cP-63" target="8rBcMEOyOnEWWZbrD7cP-1">
          <mxGeometry width="50" height="50" relative="1" as="geometry">
            <mxPoint x="408" y="380" as="sourcePoint" />
            <mxPoint x="458" y="330" as="targetPoint" />
          </mxGeometry>
        </mxCell>
        <mxCell id="8rBcMEOyOnEWWZbrD7cP-66" value="" style="endArrow=none;html=1;rounded=0;fontSize=11;entryX=0;entryY=0.5;entryDx=0;entryDy=0;exitX=1;exitY=0.5;exitDx=0;exitDy=0;" edge="1" parent="1" source="8rBcMEOyOnEWWZbrD7cP-18" target="8rBcMEOyOnEWWZbrD7cP-63">
          <mxGeometry width="50" height="50" relative="1" as="geometry">
            <mxPoint x="214.5" y="400" as="sourcePoint" />
            <mxPoint x="338.5" y="385" as="targetPoint" />
          </mxGeometry>
        </mxCell>
        <mxCell id="8rBcMEOyOnEWWZbrD7cP-68" value="0:n" style="text;html=1;resizable=0;autosize=1;align=center;verticalAlign=middle;points=[];fillColor=none;strokeColor=none;rounded=0;dashed=1;fontSize=11;fontStyle=1" vertex="1" parent="1">
          <mxGeometry x="489" y="388" width="30" height="20" as="geometry" />
        </mxCell>
        <mxCell id="8rBcMEOyOnEWWZbrD7cP-69" value="feedback" style="ellipse;whiteSpace=wrap;html=1;" vertex="1" parent="1">
          <mxGeometry x="364" y="335" width="50" height="30" as="geometry" />
        </mxCell>
        <mxCell id="8rBcMEOyOnEWWZbrD7cP-70" value="" style="endArrow=none;html=1;rounded=0;entryX=0;entryY=1;entryDx=0;entryDy=0;" edge="1" parent="1" target="8rBcMEOyOnEWWZbrD7cP-69">
          <mxGeometry width="50" height="50" relative="1" as="geometry">
            <mxPoint x="429.5" y="381" as="sourcePoint" />
            <mxPoint x="429.5" y="370" as="targetPoint" />
          </mxGeometry>
        </mxCell>
        <mxCell id="8rBcMEOyOnEWWZbrD7cP-74" value="" style="group" vertex="1" connectable="0" parent="1">
          <mxGeometry x="249" y="218" width="74" height="40" as="geometry" />
        </mxCell>
        <mxCell id="8rBcMEOyOnEWWZbrD7cP-72" value="" style="rounded=0;whiteSpace=wrap;html=1;" vertex="1" parent="8rBcMEOyOnEWWZbrD7cP-74">
          <mxGeometry width="74" height="40" as="geometry" />
        </mxCell>
        <mxCell id="8rBcMEOyOnEWWZbrD7cP-71" value="Payment" style="rounded=0;whiteSpace=wrap;html=1;" vertex="1" parent="8rBcMEOyOnEWWZbrD7cP-74">
          <mxGeometry x="6" y="8" width="60.800000000000004" height="24" as="geometry" />
        </mxCell>
        <mxCell id="8rBcMEOyOnEWWZbrD7cP-75" value="Pay" style="rhombus;whiteSpace=wrap;html=1;" vertex="1" parent="1">
          <mxGeometry x="261.25" y="290" width="49.5" height="50" as="geometry" />
        </mxCell>
        <mxCell id="8rBcMEOyOnEWWZbrD7cP-76" value="" style="endArrow=none;html=1;rounded=0;fontSize=11;entryX=0.25;entryY=1;entryDx=0;entryDy=0;exitX=0.136;exitY=0.42;exitDx=0;exitDy=0;exitPerimeter=0;" edge="1" parent="1" source="8rBcMEOyOnEWWZbrD7cP-75" target="8rBcMEOyOnEWWZbrD7cP-72">
          <mxGeometry width="50" height="50" relative="1" as="geometry">
            <mxPoint x="558" y="380" as="sourcePoint" />
            <mxPoint x="608" y="330" as="targetPoint" />
          </mxGeometry>
        </mxCell>
        <mxCell id="8rBcMEOyOnEWWZbrD7cP-77" value="" style="endArrow=none;html=1;rounded=0;fontSize=11;entryX=0.351;entryY=1;entryDx=0;entryDy=0;entryPerimeter=0;" edge="1" parent="1" target="8rBcMEOyOnEWWZbrD7cP-72">
          <mxGeometry width="50" height="50" relative="1" as="geometry">
            <mxPoint x="278" y="300" as="sourcePoint" />
            <mxPoint x="277.5" y="268" as="targetPoint" />
          </mxGeometry>
        </mxCell>
        <mxCell id="8rBcMEOyOnEWWZbrD7cP-78" value="" style="endArrow=none;html=1;rounded=0;fontSize=11;" edge="1" parent="1">
          <mxGeometry width="50" height="50" relative="1" as="geometry">
            <mxPoint x="278" y="330" as="sourcePoint" />
            <mxPoint x="278" y="350" as="targetPoint" />
            <Array as="points">
              <mxPoint x="278" y="390" />
            </Array>
          </mxGeometry>
        </mxCell>
        <mxCell id="8rBcMEOyOnEWWZbrD7cP-80" value="" style="endArrow=none;html=1;rounded=0;fontSize=11;exitX=0.116;exitY=0.66;exitDx=0;exitDy=0;exitPerimeter=0;" edge="1" parent="1" source="8rBcMEOyOnEWWZbrD7cP-75">
          <mxGeometry width="50" height="50" relative="1" as="geometry">
            <mxPoint x="269" y="330" as="sourcePoint" />
            <mxPoint x="269" y="350" as="targetPoint" />
            <Array as="points">
              <mxPoint x="269" y="390" />
            </Array>
          </mxGeometry>
        </mxCell>
        <mxCell id="8rBcMEOyOnEWWZbrD7cP-81" value="1:1" style="text;html=1;resizable=0;autosize=1;align=center;verticalAlign=middle;points=[];fillColor=none;strokeColor=none;rounded=0;dashed=1;fontSize=11;fontStyle=1" vertex="1" parent="1">
          <mxGeometry x="280.75" y="360" width="30" height="20" as="geometry" />
        </mxCell>
        <mxCell id="8rBcMEOyOnEWWZbrD7cP-83" value="Pay" style="rhombus;whiteSpace=wrap;html=1;" vertex="1" parent="1">
          <mxGeometry x="269.25" y="298" width="32.67" height="33" as="geometry" />
        </mxCell>
        <mxCell id="8rBcMEOyOnEWWZbrD7cP-82" value="1:1" style="text;html=1;resizable=0;autosize=1;align=center;verticalAlign=middle;points=[];fillColor=none;strokeColor=none;rounded=0;dashed=1;fontSize=11;fontStyle=1" vertex="1" parent="1">
          <mxGeometry x="272" y="270" width="30" height="20" as="geometry" />
        </mxCell>
        <mxCell id="8rBcMEOyOnEWWZbrD7cP-86" value="&lt;u&gt;Name&lt;/u&gt;" style="ellipse;whiteSpace=wrap;html=1;" vertex="1" parent="1">
          <mxGeometry x="-190" y="560" width="50" height="30" as="geometry" />
        </mxCell>
        <mxCell id="8rBcMEOyOnEWWZbrD7cP-87" value="size" style="ellipse;whiteSpace=wrap;html=1;" vertex="1" parent="1">
          <mxGeometry x="-132" y="565" width="45" height="22.5" as="geometry" />
        </mxCell>
        <mxCell id="8rBcMEOyOnEWWZbrD7cP-88" value="price&lt;span style=&quot;color: rgba(0, 0, 0, 0); font-family: monospace; font-size: 0px; text-align: start;&quot;&gt;%3CmxGraphModel%3E%3Croot%3E%3CmxCell%20id%3D%220%22%2F%3E%3CmxCell%20id%3D%221%22%20parent%3D%220%22%2F%3E%3CmxCell%20id%3D%222%22%20value%3D%22size%22%20style%3D%22ellipse%3BwhiteSpace%3Dwrap%3Bhtml%3D1%3B%22%20vertex%3D%221%22%20parent%3D%221%22%3E%3CmxGeometry%20x%3D%22128%22%20y%3D%22535%22%20width%3D%2245%22%20height%3D%2222.5%22%20as%3D%22geometry%22%2F%3E%3C%2FmxCell%3E%3C%2Froot%3E%3C%2FmxGraphModel%3E&lt;/span&gt;" style="ellipse;whiteSpace=wrap;html=1;" vertex="1" parent="1">
          <mxGeometry x="-80" y="565" width="45" height="22.5" as="geometry" />
        </mxCell>
        <mxCell id="8rBcMEOyOnEWWZbrD7cP-89" value="discription" style="ellipse;whiteSpace=wrap;html=1;" vertex="1" parent="1">
          <mxGeometry x="-24.25" y="565" width="64.25" height="22.5" as="geometry" />
        </mxCell>
        <mxCell id="8rBcMEOyOnEWWZbrD7cP-90" value="" style="endArrow=none;html=1;rounded=0;exitX=0;exitY=0;exitDx=0;exitDy=0;entryX=0.5;entryY=1;entryDx=0;entryDy=0;" edge="1" parent="1" source="8rBcMEOyOnEWWZbrD7cP-89">
          <mxGeometry width="50" height="50" relative="1" as="geometry">
            <mxPoint x="-38.5" y="575" as="sourcePoint" />
            <mxPoint x="-56" y="550" as="targetPoint" />
          </mxGeometry>
        </mxCell>
        <mxCell id="8rBcMEOyOnEWWZbrD7cP-91" value="" style="endArrow=none;html=1;rounded=0;exitX=0;exitY=0;exitDx=0;exitDy=0;entryX=0.75;entryY=1;entryDx=0;entryDy=0;" edge="1" parent="1" source="8rBcMEOyOnEWWZbrD7cP-88" target="8rBcMEOyOnEWWZbrD7cP-17">
          <mxGeometry width="50" height="50" relative="1" as="geometry">
            <mxPoint x="-5.394078659895968" y="578.4936404467014" as="sourcePoint" />
            <mxPoint x="-46" y="560" as="targetPoint" />
          </mxGeometry>
        </mxCell>
        <mxCell id="8rBcMEOyOnEWWZbrD7cP-92" value="" style="endArrow=none;html=1;rounded=0;exitX=0;exitY=0;exitDx=0;exitDy=0;entryX=0.25;entryY=1;entryDx=0;entryDy=0;" edge="1" parent="1" source="8rBcMEOyOnEWWZbrD7cP-87" target="8rBcMEOyOnEWWZbrD7cP-17">
          <mxGeometry width="50" height="50" relative="1" as="geometry">
            <mxPoint x="-63.793103448271495" y="578.4913793103468" as="sourcePoint" />
            <mxPoint x="-65" y="560" as="targetPoint" />
          </mxGeometry>
        </mxCell>
        <mxCell id="8rBcMEOyOnEWWZbrD7cP-93" value="" style="endArrow=none;html=1;rounded=0;exitX=0.5;exitY=0;exitDx=0;exitDy=0;entryX=0;entryY=0.75;entryDx=0;entryDy=0;" edge="1" parent="1" source="8rBcMEOyOnEWWZbrD7cP-86" target="8rBcMEOyOnEWWZbrD7cP-17">
          <mxGeometry width="50" height="50" relative="1" as="geometry">
            <mxPoint x="-115.79310344828241" y="578.4913793103417" as="sourcePoint" />
            <mxPoint x="-103" y="560" as="targetPoint" />
          </mxGeometry>
        </mxCell>
        <mxCell id="8rBcMEOyOnEWWZbrD7cP-94" value="&lt;u&gt;WarehouseID&lt;/u&gt;" style="ellipse;whiteSpace=wrap;html=1;" vertex="1" parent="1">
          <mxGeometry x="-87" y="350" width="87" height="30" as="geometry" />
        </mxCell>
        <mxCell id="8rBcMEOyOnEWWZbrD7cP-95" value="capacity" style="ellipse;whiteSpace=wrap;html=1;" vertex="1" parent="1">
          <mxGeometry x="24" y="354.5" width="45" height="22.5" as="geometry" />
        </mxCell>
        <mxCell id="8rBcMEOyOnEWWZbrD7cP-96" value="" style="endArrow=none;html=1;rounded=0;exitX=0;exitY=0;exitDx=0;exitDy=0;entryX=0;entryY=0.75;entryDx=0;entryDy=0;" edge="1" parent="1" source="8rBcMEOyOnEWWZbrD7cP-94">
          <mxGeometry width="50" height="50" relative="1" as="geometry">
            <mxPoint x="-53.00000000000023" y="354.5" as="sourcePoint" />
            <mxPoint x="-20" y="337" as="targetPoint" />
          </mxGeometry>
        </mxCell>
        <mxCell id="8rBcMEOyOnEWWZbrD7cP-97" value="" style="endArrow=none;html=1;rounded=0;exitX=0.5;exitY=0;exitDx=0;exitDy=0;entryX=0.5;entryY=1;entryDx=0;entryDy=0;" edge="1" parent="1" source="8rBcMEOyOnEWWZbrD7cP-95" target="8rBcMEOyOnEWWZbrD7cP-19">
          <mxGeometry width="50" height="50" relative="1" as="geometry">
            <mxPoint x="-64.40955374007899" y="364.44551823509494" as="sourcePoint" />
            <mxPoint x="-10" y="347" as="targetPoint" />
          </mxGeometry>
        </mxCell>
        <mxCell id="8rBcMEOyOnEWWZbrD7cP-99" value="" style="endArrow=none;html=1;rounded=0;fontSize=11;entryX=0;entryY=0;entryDx=0;entryDy=0;exitX=1;exitY=0.5;exitDx=0;exitDy=0;startArrow=none;" edge="1" parent="1" source="8rBcMEOyOnEWWZbrD7cP-100" target="8rBcMEOyOnEWWZbrD7cP-16">
          <mxGeometry width="50" height="50" relative="1" as="geometry">
            <mxPoint x="56" y="324.47" as="sourcePoint" />
            <mxPoint x="136.5" y="324.47" as="targetPoint" />
          </mxGeometry>
        </mxCell>
        <mxCell id="8rBcMEOyOnEWWZbrD7cP-100" value="Service" style="rhombus;whiteSpace=wrap;html=1;" vertex="1" parent="1">
          <mxGeometry x="130" y="495" width="49.5" height="50" as="geometry" />
        </mxCell>
        <mxCell id="8rBcMEOyOnEWWZbrD7cP-101" value="" style="endArrow=none;html=1;rounded=0;fontSize=11;entryX=0;entryY=0;entryDx=0;entryDy=0;exitX=1;exitY=0.5;exitDx=0;exitDy=0;" edge="1" parent="1" target="8rBcMEOyOnEWWZbrD7cP-100">
          <mxGeometry width="50" height="50" relative="1" as="geometry">
            <mxPoint x="56" y="324.47" as="sourcePoint" />
            <mxPoint x="336" y="630" as="targetPoint" />
          </mxGeometry>
        </mxCell>
        <mxCell id="8rBcMEOyOnEWWZbrD7cP-102" value="m" style="text;html=1;resizable=0;autosize=1;align=center;verticalAlign=middle;points=[];fillColor=none;strokeColor=none;rounded=0;dashed=1;fontSize=11;fontStyle=1" vertex="1" parent="1">
          <mxGeometry x="100" y="410" width="30" height="20" as="geometry" />
        </mxCell>
        <mxCell id="8rBcMEOyOnEWWZbrD7cP-103" value="1:n" style="text;html=1;resizable=0;autosize=1;align=center;verticalAlign=middle;points=[];fillColor=none;strokeColor=none;rounded=0;dashed=1;fontSize=11;fontStyle=1" vertex="1" parent="1">
          <mxGeometry x="239.25" y="540" width="30" height="20" as="geometry" />
        </mxCell>
        <mxCell id="8rBcMEOyOnEWWZbrD7cP-105" value="&lt;u&gt;OrderID&lt;/u&gt;" style="ellipse;whiteSpace=wrap;html=1;" vertex="1" parent="1">
          <mxGeometry x="260" y="440" width="50.75" height="30" as="geometry" />
        </mxCell>
        <mxCell id="8rBcMEOyOnEWWZbrD7cP-106" value="1:1" style="text;html=1;resizable=0;autosize=1;align=center;verticalAlign=middle;points=[];fillColor=none;strokeColor=none;rounded=0;dashed=1;fontSize=11;fontStyle=1" vertex="1" parent="1">
          <mxGeometry x="345.5" y="386" width="30" height="20" as="geometry" />
        </mxCell>
        <mxCell id="8rBcMEOyOnEWWZbrD7cP-107" value="" style="endArrow=none;html=1;rounded=0;entryX=1;entryY=0.5;entryDx=0;entryDy=0;exitX=0;exitY=0;exitDx=0;exitDy=0;" edge="1" parent="1" source="8rBcMEOyOnEWWZbrD7cP-105">
          <mxGeometry width="50" height="50" relative="1" as="geometry">
            <mxPoint x="318.75" y="460" as="sourcePoint" />
            <mxPoint x="280.750000000015" y="420" as="targetPoint" />
          </mxGeometry>
        </mxCell>
        <mxCell id="8rBcMEOyOnEWWZbrD7cP-109" value="&lt;span&gt;Amount&lt;/span&gt;" style="ellipse;whiteSpace=wrap;html=1;fontStyle=0" vertex="1" parent="1">
          <mxGeometry x="323" y="440" width="50.75" height="30" as="geometry" />
        </mxCell>
        <mxCell id="8rBcMEOyOnEWWZbrD7cP-110" value="" style="endArrow=none;html=1;rounded=0;entryX=0.5;entryY=1;entryDx=0;entryDy=0;exitX=0.5;exitY=0;exitDx=0;exitDy=0;" edge="1" parent="1" source="8rBcMEOyOnEWWZbrD7cP-109" target="8rBcMEOyOnEWWZbrD7cP-18">
          <mxGeometry width="50" height="50" relative="1" as="geometry">
            <mxPoint x="277.3134047260796" y="454.46406942354645" as="sourcePoint" />
            <mxPoint x="290.750000000015" y="430" as="targetPoint" />
          </mxGeometry>
        </mxCell>
        <mxCell id="8rBcMEOyOnEWWZbrD7cP-111" value="&lt;span&gt;Date&lt;/span&gt;" style="ellipse;whiteSpace=wrap;html=1;fontStyle=0" vertex="1" parent="1">
          <mxGeometry x="380.12" y="440" width="50.75" height="30" as="geometry" />
        </mxCell>
        <mxCell id="8rBcMEOyOnEWWZbrD7cP-112" value="" style="endArrow=none;html=1;rounded=0;entryX=0.75;entryY=1;entryDx=0;entryDy=0;exitX=0.5;exitY=0;exitDx=0;exitDy=0;" edge="1" parent="1" source="8rBcMEOyOnEWWZbrD7cP-111" target="8rBcMEOyOnEWWZbrD7cP-18">
          <mxGeometry width="50" height="50" relative="1" as="geometry">
            <mxPoint x="358.375" y="450" as="sourcePoint" />
            <mxPoint x="297" y="430" as="targetPoint" />
          </mxGeometry>
        </mxCell>
      </root>
    </mxGraphModel>
  </diagram>
</mxfile>
